<svg width="220" height="90" viewBox="0 0 220 90" xmlns="http://www.w3.org/2000/svg">
  <g transform="translate(60,45)">
    <!-- Left Stallion -->
    <path d="M-30-18 C-34-12,-36-6,-33 0 C-30 6,-25 10,-20 12 C-16 14,-10 14,-7 12 C-4 10,-2 6,-4 0 C-6-6,-10-10,-16-12 C-22-14,-27-12,-30-18 Z 
             M-24 18 L-27 30 L-21 30 Z M-16 18 L-14 30 L-19 30 Z" 
          fill="none" stroke="#B22222" stroke-width="2.5"/>
    <!-- Right Stallion -->
    <path d="M30-18 C34-12,36-6,33 0 C30 6,25 10,20 12 C16 14,10 14,7 12 C4 10,2 6,4 0 C6-6,10-10,16-12 C22-14,27-12,30-18 Z 
             M24 18 L27 30 L21 30 Z M16 18 L14 30 L19 30 Z" 
          fill="none" stroke="#B22222" stroke-width="2.5"/>
  </g>
  <text x="110" y="65" font-family="'Playfair Display', serif" font-size="28" font-weight="700" fill="#1A1A1A" text-anchor="middle">
    Mangal BBQ Co.
  </text>
</svg>
